<?xml version="1.0" encoding="UTF-8"?>
<svg version="1.1" xmlns="http://www.w3.org/2000/svg" width="512" height="512">
<path d="M0 0 C0.72574219 0.680625 1.45148438 1.36125 2.19921875 2.0625 C4.33875259 4.07224503 4.33875259 4.07224503 6.87890625 6.0234375 C9.04599 7.78354083 10.77058253 9.49822927 12.5625 11.625 C14.44890753 13.84406434 16.33869734 16.02771164 18.33984375 18.14453125 C49.92927442 51.67616923 75.45177062 105.10021742 79.3125 151 C80.03308594 151.10570312 80.75367188 151.21140625 81.49609375 151.3203125 C93.53874835 154.22658421 106.13918121 167.05035183 112.6640625 177.171875 C124.90017092 198.16462974 129.75637036 219.90165289 129.6875 244.1875 C129.68668427 245.27425522 129.68668427 245.27425522 129.68585205 246.38296509 C129.61249383 267.6706401 125.5310881 287.34010715 111.3125 304 C109.9935233 305.24455973 108.66043242 306.47436082 107.3125 307.6875 C103.56058572 311.25657245 101.56349103 315.07401187 99.375 319.6875 C89.23996601 340.99845004 73.66746962 357.48937271 51.3125 366 C43.3638053 368.79363402 35.42083583 370.00332993 27.08203125 371.04296875 C25.71972245 371.21757502 24.35747482 371.39265916 22.99528503 371.56819153 C20.15272352 371.93246964 17.30947144 372.29057749 14.46557617 372.64428711 C10.8650326 373.0926586 7.2667681 373.55700922 3.66888905 374.02622509 C0.85802903 374.39081666 -1.95392709 374.74632755 -4.76626015 375.09935951 C-6.72456716 375.34682504 -8.68190956 375.60188752 -10.63920593 375.85722351 C-36.64029604 379.04374399 -59.40272381 374.56918015 -80.6875 359 C-84.19196007 356.15854589 -87.45599403 353.14590316 -90.6875 350 C-91.50734375 349.24203125 -92.3271875 348.4840625 -93.171875 347.703125 C-118.01455186 324.09486686 -132.07652382 288.06771962 -133.89257812 254.17236328 C-133.9899654 250.19687574 -134.0216487 246.22624392 -134 242.25 C-133.99817719 241.55100586 -133.99635437 240.85201172 -133.99447632 240.13183594 C-133.84867617 206.83431089 -123.48000588 175.86207462 -99.6875 152 C-98.97078125 151.26007813 -98.2540625 150.52015625 -97.515625 149.7578125 C-83.25176425 135.97656358 -64.3650846 131.94768514 -45.3125 129.75 C-43.88268709 129.57655155 -42.45299829 129.40207681 -41.0234375 129.2265625 C-37.57946659 128.80593339 -34.13405363 128.39898685 -30.6875 128 C-27.28320131 95.49166371 -28.25463026 62.74664723 -49 35.4375 C-50.21626573 33.94770726 -51.44601113 32.46883971 -52.6875 31 C-53.35523438 30.18660156 -54.02296875 29.37320313 -54.7109375 28.53515625 C-68.15165413 12.7896236 -93.15688776 -3.25496477 -114.30078125 -5.24609375 C-117.45414537 -5.32023924 -120.53873158 -5.19635972 -123.6875 -5 C-124.37489258 -4.95746094 -125.06228516 -4.91492187 -125.77050781 -4.87109375 C-157.06561319 -2.74013066 -185.3273219 8.63647001 -206.6965332 32.21459961 C-238.43688944 68.63152384 -244.84951933 120.80666828 -246.8125 167.125 C-246.8991971 169.06643055 -246.98643397 171.00783708 -247.07421875 172.94921875 C-247.28484076 177.63256015 -247.48825587 182.31616133 -247.6875 187 C-245.87983154 186.97389648 -245.87983154 186.97389648 -244.03564453 186.94726562 C-242.42220404 186.93318469 -240.80875973 186.91953591 -239.1953125 186.90625 C-238.00965698 186.88739746 -238.00965698 186.88739746 -236.80004883 186.86816406 C-222.2744736 186.77882172 -210.14294793 192.01875584 -197.6875 199 C-196.72328125 199.52207031 -195.7590625 200.04414063 -194.765625 200.58203125 C-165.93078015 217.43079414 -146.88162402 251.01078061 -138.33251953 282.41552734 C-128.84795924 320.41838701 -130.01527586 362.15775705 -149.81640625 396.84375 C-161.79996519 416.73883724 -179.11305382 433.62677763 -202.16143799 439.48568726 C-212.56884669 441.99086147 -223.11146068 443.68917782 -233.68945312 445.29248047 C-236.68600094 445.74977123 -239.67874907 446.22791577 -242.671875 446.70703125 C-264.03913543 450.03488264 -283.71810135 450.68129686 -303.6875 441 C-305.05648437 440.33677734 -305.05648437 440.33677734 -306.453125 439.66015625 C-339.46215363 422.63692863 -364.69787674 390.61616151 -375.92919922 355.53857422 C-384.05102771 328.34901446 -386.68055787 297.57207958 -378.6875 270 C-378.51089844 269.34273926 -378.33429688 268.68547852 -378.15234375 268.00830078 C-373.92641955 252.44672621 -366.14703191 237.45953191 -354.6875 226 C-354.62334053 223.74177828 -354.62861154 221.48156898 -354.66015625 219.22265625 C-354.6748895 217.76205073 -354.68893624 216.30143816 -354.70239258 214.84082031 C-354.71074127 214.06339478 -354.71908997 213.28596924 -354.72769165 212.48498535 C-355.31972028 148.19602092 -346.41136903 81.30779367 -305.6875 29 C-305.24615723 28.43168457 -304.80481445 27.86336914 -304.35009766 27.27783203 C-289.03397703 7.8405756 -270.94494968 -7.49623488 -249.6875 -20 C-249.08212402 -20.35835937 -248.47674805 -20.71671875 -247.85302734 -21.0859375 C-174.67239774 -63.83322814 -63.46601239 -57.16642301 0 0 Z " fill="#51518B" transform="translate(382.6875,55)"/>
<path d="M0 0 C6.36262761 3.90743862 11.89404667 8.47579559 17.1875 13.75 C18.00734375 14.56597656 18.8271875 15.38195312 19.671875 16.22265625 C20.50203125 17.05667969 21.3321875 17.89070313 22.1875 18.75 C22.94289063 19.49636719 23.69828125 20.24273437 24.4765625 21.01171875 C48.75094316 46.21972943 59.94416525 82.71695504 59.5625 117.125 C59.55751495 117.88724884 59.55252991 118.64949768 59.5473938 119.43484497 C59.32193953 148.92156508 52.50575318 177.33904284 32.1875 199.75 C31.41664063 200.60207031 30.64578125 201.45414063 29.8515625 202.33203125 C20.99509519 211.64948187 11.18759777 217.31842862 -0.8125 221.75 C-1.67891113 222.07709961 -2.54532227 222.40419922 -3.43798828 222.74121094 C-7.49470258 223.95394017 -11.43143323 224.46334984 -15.62890625 224.93359375 C-16.47403275 225.03376801 -17.31915924 225.13394226 -18.18989563 225.2371521 C-20.91762837 225.55963944 -23.64625208 225.87372955 -26.375 226.1875 C-30.10848805 226.62412003 -33.84145534 227.065043 -37.57421875 227.5078125 C-38.48024841 227.61489029 -39.38627808 227.72196808 -40.31976318 227.83229065 C-46.79953735 228.60644702 -53.24262331 229.53818266 -59.6875 230.5625 C-83.90182704 234.20442188 -104.81310803 229.97665802 -124.9375 215.625 C-150.98564983 194.99175088 -164.73330672 168.30660852 -173.8125 136.75 C-174.03583008 135.98042969 -174.25916016 135.21085938 -174.48925781 134.41796875 C-177.28375911 124.19297288 -177.07931075 113.63994943 -177.125 103.125 C-177.12903839 102.42743591 -177.13307678 101.72987183 -177.13723755 101.01116943 C-177.17308676 87.69681201 -176.17294961 74.60201105 -172.1875 61.8125 C-171.93025146 60.97477051 -171.67300293 60.13704102 -171.40795898 59.27392578 C-163.67284983 35.16087193 -148.44876232 15.08878541 -126.375 2.546875 C-119.46595411 -0.93795078 -113.12150689 -2.76638521 -105.51171875 -3.78515625 C-104.63586624 -3.90934433 -103.76001373 -4.03353241 -102.85762024 -4.16148376 C-101.00846256 -4.42192345 -99.15868589 -4.67800186 -97.30834961 -4.92993164 C-94.54464266 -5.30641854 -91.78302395 -5.69585526 -89.02148438 -6.08789062 C-79.30379703 -7.45162974 -69.58501524 -8.66280691 -59.81632996 -9.6006012 C-55.77208773 -9.97784881 -55.77208773 -9.97784881 -51.79496765 -10.76649475 C-34.89377627 -14.88853666 -14.47962026 -8.58589624 0 0 Z " fill="#C4C4FC" transform="translate(430.8125,195.25)"/>
<path d="M0 0 C17.96111964 16.76371166 32.00390566 36.61377613 43.4609375 58.296875 C43.8022168 58.94092285 44.14349609 59.5849707 44.49511719 60.24853516 C56.47844789 83.06273271 72.4609375 114.12848676 72.4609375 140.296875 C64.48468604 139.04654369 58.82505617 136.56182778 52.32177734 131.77880859 C38.38706758 121.56555932 23.11719614 117.09593783 6.0234375 117.109375 C4.72877563 117.1084082 4.72877563 117.1084082 3.40795898 117.10742188 C-3.82478016 117.16571302 -10.87849073 117.8608739 -18.03515625 118.859375 C-20.93784399 119.22180647 -23.6255673 119.33180077 -26.5390625 119.296875 C-26.52335205 118.11883301 -26.5076416 116.94079102 -26.49145508 115.72705078 C-26.43626112 111.2652091 -26.40239471 106.80339602 -26.37426758 102.34130859 C-26.35938109 100.42719412 -26.33906525 98.51311248 -26.31274414 96.59912109 C-26.09846644 80.59131638 -26.7225751 64.70207876 -32.6640625 49.609375 C-32.96554199 48.82594727 -33.26702148 48.04251953 -33.57763672 47.23535156 C-43.52155594 22.37807864 -61.80458232 4.59690848 -85.140625 -7.828125 C-87.82376848 -9.30848003 -90.1698062 -10.77885592 -92.5390625 -12.703125 C-71.75555041 -11.88808531 -51.20336393 -5.0081047 -31.5390625 1.296875 C-31.68177415 -0.66986119 -31.68177415 -0.66986119 -32.5390625 -2.703125 C-34.56861741 -3.82840529 -34.56861741 -3.82840529 -37.1484375 -4.44921875 C-38.12006836 -4.72668945 -39.09169922 -5.00416016 -40.09277344 -5.29003906 C-41.14754883 -5.57073242 -42.20232422 -5.85142578 -43.2890625 -6.140625 C-44.37219727 -6.4406543 -45.45533203 -6.74068359 -46.57128906 -7.04980469 C-49.88811376 -7.95774063 -53.21143891 -8.8356804 -56.5390625 -9.703125 C-57.48652344 -9.95271973 -58.43398438 -10.20231445 -59.41015625 -10.45947266 C-62.03229464 -11.14212298 -64.65853368 -11.80361485 -67.2890625 -12.453125 C-68.02866211 -12.63931396 -68.76826172 -12.82550293 -69.53027344 -13.01733398 C-84.695313 -16.60305331 -99.9031257 -18.22747339 -115.46630859 -18.14916992 C-118.03954419 -18.1406234 -120.6105724 -18.1696625 -123.18359375 -18.20117188 C-155.26218433 -18.33665304 -184.4130606 -7.15226831 -207.5390625 15.296875 C-214.79401563 22.52727668 -220.33508015 30.53947108 -225.5390625 39.296875 C-226.54259766 40.95589844 -226.54259766 40.95589844 -227.56640625 42.6484375 C-237.87724518 60.738345 -243.62225468 80.96221422 -247.5390625 101.296875 C-247.69068848 102.06467285 -247.84231445 102.8324707 -247.99853516 103.62353516 C-252.89380175 128.64928076 -253.74287628 153.8777979 -254.5390625 179.296875 C-256.76440215 180.40954482 -258.41938645 180.61497768 -260.88671875 180.91015625 C-261.78970703 181.02149902 -262.69269531 181.1328418 -263.62304688 181.24755859 C-264.60595703 181.36695801 -265.58886719 181.48635742 -266.6015625 181.609375 C-307.35887047 186.72956989 -307.35887047 186.72956989 -342.18359375 207.30859375 C-344.85158485 209.56067911 -347.57843121 211.45648258 -350.5390625 213.296875 C-351.66905519 204.58673367 -351.77988595 195.87857799 -351.7890625 187.109375 C-351.79040192 186.3499762 -351.79174133 185.59057739 -351.79312134 184.8081665 C-351.78495385 163.22291281 -350.20021372 141.40740654 -345.5390625 120.296875 C-345.31766602 119.26449707 -345.09626953 118.23211914 -344.86816406 117.16845703 C-336.93129783 80.63537841 -323.23395756 45.88033227 -298.5390625 17.296875 C-297.85714844 16.50539063 -297.17523438 15.71390625 -296.47265625 14.8984375 C-282.24701 -1.23583749 -267.05824781 -13.77836963 -248.5390625 -24.703125 C-247.94963867 -25.05616699 -247.36021484 -25.40920898 -246.75292969 -25.77294922 C-223.01529063 -39.83645687 -194.93045865 -47.54433533 -167.5390625 -49.703125 C-166.35183594 -49.81269531 -165.16460937 -49.92226563 -163.94140625 -50.03515625 C-103.0424687 -55.00514571 -45.70196842 -41.80937174 0 0 Z " fill="#51518A" transform="translate(384.5390625,63.703125)"/>
<path d="M0 0 C1.56923218 -0.0148645 1.56923218 -0.0148645 3.17016602 -0.0300293 C13.322311 0.08240383 22.85834151 2.37984819 32.125 6.5 C32.79499023 6.79745117 33.46498047 7.09490234 34.15527344 7.40136719 C62.85856586 20.73127904 82.87960282 48.68855364 94.25 77.4375 C98.46554845 89.14839653 101.3838969 101.14001482 103.25 113.4375 C103.43433594 114.64277344 103.61867187 115.84804688 103.80859375 117.08984375 C107.68111957 149.38554147 101.15308966 184.69413125 82.078125 211.48828125 C80.19972586 213.87158843 78.25496278 216.16075338 76.25 218.4375 C75.46625 219.46875 74.6825 220.5 73.875 221.5625 C57.25094581 239.76979744 35.18329578 244.56926401 11.88916016 248.23266602 C8.64748571 248.74643626 5.4120095 249.29098819 2.17578125 249.83789062 C-24.01281535 254.11711376 -43.89864188 253.32977379 -67.75 241.4375 C-64.75 240.4375 -64.75 240.4375 -61.75 241.4375 C-43.98929564 243.05173797 -28.11621531 240.74206287 -13.75 229.4375 C5.97051575 212.51095003 15.62776648 186.79368913 18.25 161.4375 C18.47907177 156.65544338 18.53964104 151.89285184 18.51074219 147.10620117 C18.50002423 145.00475113 18.51071198 142.90415879 18.5234375 140.80273438 C18.53736565 128.40504976 17.37047742 116.19713585 14.125 104.1875 C13.80958252 103.00969971 13.80958252 103.00969971 13.48779297 101.80810547 C5.47830482 73.33055433 -11.29534725 43.47272322 -37.4375 28.1875 C-53.28961946 19.48613451 -66.94044728 18.75048461 -84.75 19.4375 C-74.6443954 8.75512113 -56.87034516 7.31356348 -43.05078125 5.265625 C-39.38297237 4.71328967 -35.7462834 4.06777724 -32.10546875 3.359375 C-21.36910319 1.31367177 -10.94454671 0.05279607 0 0 Z " fill="#A1A1F2" transform="translate(140.75,246.5625)"/>
<path d="M0 0 C0.72574219 0.680625 1.45148438 1.36125 2.19921875 2.0625 C4.33875259 4.07224503 4.33875259 4.07224503 6.87890625 6.0234375 C9.04599 7.78354083 10.77058253 9.49822927 12.5625 11.625 C14.44890753 13.84406434 16.33869734 16.02771164 18.33984375 18.14453125 C49.92927442 51.67616923 75.45177062 105.10021742 79.3125 151 C80.03308594 151.10570312 80.75367188 151.21140625 81.49609375 151.3203125 C93.53874835 154.22658421 106.13918121 167.05035183 112.6640625 177.171875 C124.90017092 198.16462974 129.75637036 219.90165289 129.6875 244.1875 C129.68668427 245.27425522 129.68668427 245.27425522 129.68585205 246.38296509 C129.61249383 267.6706401 125.5310881 287.34010715 111.3125 304 C109.9935233 305.24455973 108.66043242 306.47436082 107.3125 307.6875 C103.56058572 311.25657245 101.56349103 315.07401187 99.375 319.6875 C89.23996601 340.99845004 73.66746962 357.48937271 51.3125 366 C43.3638053 368.79363402 35.42083583 370.00332993 27.08203125 371.04296875 C25.71972245 371.21757502 24.35747482 371.39265916 22.99528503 371.56819153 C20.15272352 371.93246964 17.30947144 372.29057749 14.46557617 372.64428711 C10.8650326 373.0926586 7.2667681 373.55700922 3.66888905 374.02622509 C0.85802903 374.39081666 -1.95392709 374.74632755 -4.76626015 375.09935951 C-6.72456716 375.34682504 -8.68190956 375.60188752 -10.63920593 375.85722351 C-36.64029604 379.04374399 -59.40272381 374.56918015 -80.6875 359 C-84.19196007 356.15854589 -87.45599403 353.14590316 -90.6875 350 C-91.50734375 349.24203125 -92.3271875 348.4840625 -93.171875 347.703125 C-118.01455186 324.09486686 -132.07652382 288.06771962 -133.89257812 254.17236328 C-133.9899654 250.19687574 -134.0216487 246.22624392 -134 242.25 C-133.99817719 241.55100586 -133.99635437 240.85201172 -133.99447632 240.13183594 C-133.84867617 206.83431089 -123.48000588 175.86207462 -99.6875 152 C-98.97078125 151.26007813 -98.2540625 150.52015625 -97.515625 149.7578125 C-83.25176425 135.97656358 -64.3650846 131.94768514 -45.3125 129.75 C-43.88268709 129.57655155 -42.45299829 129.40207681 -41.0234375 129.2265625 C-37.57946659 128.80593339 -34.13405363 128.39898685 -30.6875 128 C-27.28320131 95.49166371 -28.25463026 62.74664723 -49 35.4375 C-50.21626573 33.94770726 -51.44601113 32.46883971 -52.6875 31 C-53.35523438 30.18660156 -54.02296875 29.37320313 -54.7109375 28.53515625 C-68.15165413 12.7896236 -93.15688776 -3.25496477 -114.30078125 -5.24609375 C-117.45414537 -5.32023924 -120.53873158 -5.19635972 -123.6875 -5 C-124.37489258 -4.95746094 -125.06228516 -4.91492187 -125.77050781 -4.87109375 C-157.06561319 -2.74013066 -185.3273219 8.63647001 -206.6965332 32.21459961 C-238.43688944 68.63152384 -244.84951933 120.80666828 -246.8125 167.125 C-246.8991971 169.06643055 -246.98643397 171.00783708 -247.07421875 172.94921875 C-247.28484076 177.63256015 -247.48825587 182.31616133 -247.6875 187 C-245.87983154 186.97389648 -245.87983154 186.97389648 -244.03564453 186.94726562 C-242.42220404 186.93318469 -240.80875973 186.91953591 -239.1953125 186.90625 C-238.00965698 186.88739746 -238.00965698 186.88739746 -236.80004883 186.86816406 C-222.2744736 186.77882172 -210.14294793 192.01875584 -197.6875 199 C-196.72328125 199.52207031 -195.7590625 200.04414063 -194.765625 200.58203125 C-165.93078015 217.43079414 -146.88162402 251.01078061 -138.33251953 282.41552734 C-128.84795924 320.41838701 -130.01527586 362.15775705 -149.81640625 396.84375 C-161.79996519 416.73883724 -179.11305382 433.62677763 -202.16143799 439.48568726 C-212.56884669 441.99086147 -223.11146068 443.68917782 -233.68945312 445.29248047 C-236.68600094 445.74977123 -239.67874907 446.22791577 -242.671875 446.70703125 C-264.03913543 450.03488264 -283.71810135 450.68129686 -303.6875 441 C-305.05648437 440.33677734 -305.05648437 440.33677734 -306.453125 439.66015625 C-339.46215363 422.63692863 -364.69787674 390.61616151 -375.92919922 355.53857422 C-384.05102771 328.34901446 -386.68055787 297.57207958 -378.6875 270 C-378.51089844 269.34273926 -378.33429688 268.68547852 -378.15234375 268.00830078 C-373.92641955 252.44672621 -366.14703191 237.45953191 -354.6875 226 C-354.62334053 223.74177828 -354.62861154 221.48156898 -354.66015625 219.22265625 C-354.6748895 217.76205073 -354.68893624 216.30143816 -354.70239258 214.84082031 C-354.71074127 214.06339478 -354.71908997 213.28596924 -354.72769165 212.48498535 C-355.31972028 148.19602092 -346.41136903 81.30779367 -305.6875 29 C-305.24615723 28.43168457 -304.80481445 27.86336914 -304.35009766 27.27783203 C-289.03397703 7.8405756 -270.94494968 -7.49623488 -249.6875 -20 C-249.08212402 -20.35835937 -248.47674805 -20.71671875 -247.85302734 -21.0859375 C-174.67239774 -63.83322814 -63.46601239 -57.16642301 0 0 Z M-170.2734375 -40.26464844 C-172.37810009 -40.03391884 -174.48577056 -39.83096257 -176.59375 -39.6328125 C-209.58830133 -36.05596955 -241.46498897 -22.04868563 -267.6875 -2 C-268.59371094 -1.31808594 -269.49992187 -0.63617188 -270.43359375 0.06640625 C-314.80993874 34.81578784 -339.60672673 90.21489071 -346.5625 145.25 C-346.87283467 147.97618904 -347.16030246 150.70282575 -347.42724609 153.43359375 C-347.67840828 155.91034503 -347.98213683 158.37488299 -348.30078125 160.84375 C-349.69103303 172.28553362 -349.87097454 183.67707984 -349.875 195.1875 C-349.87599701 195.9467981 -349.87699402 196.70609619 -349.87802124 197.48840332 C-349.87679652 205.71453022 -349.69847813 213.82320892 -348.6875 222 C-344.54900234 219.35038917 -340.92939856 216.52753517 -337.25 213.25 C-322.37884169 200.53028289 -304.99706244 196.0290224 -286.02075195 193.18969727 C-283.49206243 192.81131225 -280.96572068 192.41959296 -278.43945312 192.02539062 C-271.85013531 191.00759695 -265.2782411 190.00068106 -258.63671875 189.38671875 C-254.90812664 189.25944533 -254.90812664 189.25944533 -252.6875 188 C-252.66768066 187.23671387 -252.64786133 186.47342773 -252.62744141 185.68701172 C-252.18542333 169.39583707 -251.53554647 153.20270984 -249.6875 137 C-249.58711426 136.10796875 -249.48672852 135.2159375 -249.38330078 134.296875 C-244.42414546 91.50601246 -231.92281414 44.28319061 -197.14160156 15.73095703 C-183.52044382 4.97976827 -168.55961301 -2.03747224 -151.6875 -6 C-150.6456958 -6.26039062 -149.6038916 -6.52078125 -148.53051758 -6.7890625 C-138.69212348 -9.03616476 -129.21009275 -9.46393431 -119.13745117 -9.39111328 C-116.52013179 -9.37512299 -113.90438041 -9.39100369 -111.28710938 -9.41015625 C-94.91113962 -9.43174777 -79.06782497 -7.17923131 -63.1875 -3.1875 C-62.15431641 -2.93178223 -61.12113281 -2.67606445 -60.05664062 -2.41259766 C-56.92851163 -1.62672486 -53.80709703 -0.81904287 -50.6875 0 C-49.68332031 0.26248535 -48.67914063 0.5249707 -47.64453125 0.79541016 C-44.81797697 1.54732214 -42.00175868 2.32842951 -39.1875 3.125 C-38.33865234 3.35421143 -37.48980469 3.58342285 -36.61523438 3.81958008 C-34.28125 4.5078125 -34.28125 4.5078125 -30.6875 6 C-29.96289062 8.09326172 -29.96289062 8.09326172 -29.6875 10 C-30.69683594 9.63648438 -31.70617187 9.27296875 -32.74609375 8.8984375 C-41.9082653 5.68098862 -51.11786895 3.01353655 -60.5625 0.75 C-61.5827124 0.50427246 -62.6029248 0.25854492 -63.65405273 0.00537109 C-77.03067959 -3.13145821 -77.03067959 -3.13145821 -90.6875 -4 C-87.69551927 -1.56805669 -84.53106968 0.23396925 -81.15429688 2.05712891 C-73.70593443 6.08209601 -67.09096665 10.42166244 -60.6875 16 C-60.02878906 16.515625 -59.37007813 17.03125 -58.69140625 17.5625 C-45.86533611 27.88529287 -36.78778897 42.972628 -30.9375 58.125 C-30.65551758 58.83358154 -30.37353516 59.54216309 -30.08300781 60.2722168 C-24.42165613 75.75638565 -24.27640771 91.86604338 -24.5 108.125 C-24.51509866 110.06639568 -24.52877775 112.00780293 -24.54101562 113.94921875 C-24.57355432 118.63310688 -24.62503944 123.31641929 -24.6875 128 C-22.14555839 127.85811015 -19.60402007 127.71160845 -17.0625 127.5625 C-16.34964844 127.52318359 -15.63679688 127.48386719 -14.90234375 127.44335938 C-10.76431416 127.19659614 -6.77743388 126.70432525 -2.6875 126 C19.079008 124.64102075 37.04944234 128.60721087 55.09375 140.8515625 C62.18529149 145.62325431 62.18529149 145.62325431 70.25 148.25 C71.60416667 148.5 72.95833333 148.75 74.3125 149 C62.3449956 86.51331154 30.80513385 25.31191851 -22.65820312 -11.17285156 C-66.27414868 -40.14833733 -119.19195933 -45.92554359 -170.2734375 -40.26464844 Z M-10.30957031 130.44067383 C-16.03223053 131.38824643 -21.79463285 132.01901487 -27.55508423 132.6882019 C-33.93546114 133.43412389 -40.31092513 134.22238819 -46.6875 135 C-47.7698291 135.13019531 -48.8521582 135.26039063 -49.96728516 135.39453125 C-70.04543321 137.85902152 -85.06217832 144.64415661 -99.6875 159 C-100.36425781 159.65226562 -101.04101562 160.30453125 -101.73828125 160.9765625 C-125.15877892 185.28882261 -129.35803214 219.61694499 -128.95703125 251.734375 C-128.77114297 261.55392654 -127.44332863 270.58949258 -124.6875 280 C-124.2848291 281.41152344 -124.2848291 281.41152344 -123.87402344 282.8515625 C-117.00419631 306.40525551 -106.57018811 326.09676943 -89.6875 344 C-89.01332031 344.75023437 -88.33914063 345.50046875 -87.64453125 346.2734375 C-77.74528023 356.85987855 -65.26079072 364.15010957 -51.6875 369 C-50.264375 369.50853516 -50.264375 369.50853516 -48.8125 370.02734375 C-32.41226789 374.97019148 -14.07470571 371.46895265 2.5 369.125 C4.49397902 368.85168302 6.48811982 368.57954364 8.48242188 368.30859375 C11.39664607 367.91236178 14.31047073 367.51410083 17.22320557 367.10705566 C22.19839919 366.41246871 27.17332285 365.77475199 32.16496277 365.21121216 C50.06220901 363.16251628 64.52142402 355.58609079 77.3125 343 C78.075625 342.24976563 78.83875 341.49953125 79.625 340.7265625 C100.75509204 318.64268158 107.76733635 287.63622072 107.6875 257.9375 C107.68695618 257.17164581 107.68641235 256.40579163 107.68585205 255.61672974 C107.64497807 243.05353937 106.73886359 231.14872754 103.3125 219 C103.09819336 218.22994629 102.88388672 217.45989258 102.66308594 216.66650391 C96.42821047 194.97149693 86.12969729 175.23009602 70.3125 159 C69.1059375 157.7315625 69.1059375 157.7315625 67.875 156.4375 C67.029375 155.633125 66.18375 154.82875 65.3125 154 C64.65378906 153.34644531 63.99507812 152.69289062 63.31640625 152.01953125 C47.70186773 137.12290254 28.16458177 128.92094419 6.5625 128.8125 C4.65210938 128.79123047 4.65210938 128.79123047 2.703125 128.76953125 C-1.71583019 128.88970125 -5.96378068 129.67117807 -10.30957031 130.44067383 Z M-282.4140625 196.38476562 C-285.24044769 196.91597764 -288.06672515 197.40496059 -290.90625 197.859375 C-303.95035607 199.94936926 -315.31165996 203.16081761 -326.6875 210 C-323.7480058 210.86212934 -321.28376506 211.07010891 -318.23046875 210.921875 C-296.0117169 210.15830099 -279.70451419 217.40881668 -263.19140625 232.2421875 C-239.21759614 255.05657778 -224.69054495 290.69747335 -223.56518555 323.57324219 C-222.90725574 355.76608567 -225.32690324 387.59236175 -247.6875 413 C-248.35394531 413.76054687 -249.02039063 414.52109375 -249.70703125 415.3046875 C-259.62247699 425.91689429 -272.56314115 432.77218058 -287.19140625 433.2734375 C-302.44999008 433.48616648 -302.44999008 433.48616648 -309.6875 432 C-294.27770928 444.44636943 -274.44905983 445.50860622 -255.58071899 443.70263672 C-249.20655922 442.93171566 -242.87455785 441.92644106 -236.54443359 440.85668945 C-233.29715806 440.30991674 -230.04595375 439.79479076 -226.79296875 439.28320312 C-199.92014784 434.94801751 -176.99927495 426.75024929 -160.3515625 403.94140625 C-139.51122559 373.88528027 -133.31764695 335.98346399 -139.20874023 300.21948242 C-145.78331122 264.77758766 -163.29952456 228.74925259 -193.1953125 207.28515625 C-221.22954039 188.29240967 -250.3327252 190.2598276 -282.4140625 196.38476562 Z M-354.6875 233 C-371.97404834 254.25978586 -377.8591992 279.0268116 -377.92773438 305.8840332 C-377.93740844 308.16590288 -377.96851188 310.44685717 -378 312.72851562 C-378.07134538 322.55258821 -377.03528073 331.4181199 -374.6875 341 C-374.35878906 342.39327515 -374.35878906 342.39327515 -374.0234375 343.81469727 C-369.60196271 361.78902858 -362.89875117 379.14117609 -351.6875 394 C-351.05199219 394.8559375 -350.41648437 395.711875 -349.76171875 396.59375 C-337.98395139 411.88832565 -321.45642409 426.7551697 -301.6875 430 C-285.58745479 431.02558428 -270.50649361 428.5585867 -257.7734375 417.87109375 C-257.08507812 417.25363281 -256.39671875 416.63617188 -255.6875 416 C-254.99914062 415.39285156 -254.31078125 414.78570312 -253.6015625 414.16015625 C-248.18911971 409.08987938 -244.35926364 403.414736 -240.6875 397 C-240.17316406 396.11957031 -239.65882813 395.23914063 -239.12890625 394.33203125 C-235.77929992 388.16353543 -233.49372037 381.8113463 -231.4375 375.125 C-231.1912085 374.33552979 -230.94491699 373.54605957 -230.69116211 372.73266602 C-227.17818026 360.74241605 -226.31953336 348.62890765 -226.375 336.1875 C-226.37991455 334.87160889 -226.3848291 333.55571777 -226.38989258 332.19995117 C-226.50726313 322.44254585 -227.33565692 313.46702883 -229.6875 304 C-230.04322319 302.44016217 -230.39867933 300.88026342 -230.75390625 299.3203125 C-233.28100594 288.65687152 -236.84549674 278.82279838 -241.6875 269 C-242.54021484 267.26943359 -242.54021484 267.26943359 -243.41015625 265.50390625 C-254.18980374 244.65670643 -271.37893627 224.33368346 -294.1875 216.5625 C-316.8798512 209.6114089 -338.38006501 215.5840095 -354.6875 233 Z " fill="#030305" transform="translate(382.6875,55)"/>
<path d="M0 0 C7.09590578 4.20761799 13.25272752 9.05405549 19.10986328 14.88989258 C19.92970703 15.70586914 20.74955078 16.5218457 21.59423828 17.36254883 C22.42439453 18.19657227 23.25455078 19.0305957 24.10986328 19.88989258 C24.86525391 20.63625977 25.62064453 21.38262695 26.39892578 22.15161133 C50.67330644 47.35962201 61.86652854 83.85684762 61.48486328 118.26489258 C61.47987823 119.02714142 61.47489319 119.78939026 61.46975708 120.57473755 C61.24430282 150.06145765 54.42811646 178.47893542 34.10986328 200.88989258 C33.33900391 201.74196289 32.56814453 202.5940332 31.77392578 203.47192383 C20.11592103 215.73673324 4.70447459 223.84391201 -12.15966797 225.96020508 C-12.84010666 226.04615936 -13.52054535 226.13211365 -14.22160339 226.22067261 C-15.65411717 226.40003808 -17.08701606 226.57635179 -18.52026367 226.74975586 C-20.6870595 227.0130001 -22.85202252 227.28861214 -25.01708984 227.56567383 C-31.99928221 228.43916373 -38.83999911 229.12673931 -45.89013672 228.88989258 C-42.94184118 226.60135548 -39.89095306 224.63930626 -36.70263672 222.70239258 C-24.50488342 214.92106719 -13.21982844 204.10827128 -8.87841797 189.95239258 C-7.86532829 186.81301586 -6.63328886 183.85199567 -5.32910156 180.82568359 C2.28176639 163.1085487 5.51411126 145.38819692 5.54736328 126.07739258 C5.54946304 125.0818335 5.54946304 125.0818335 5.55160522 124.06616211 C5.52854698 110.61458322 3.57426538 97.88693266 0.10986328 84.88989258 C-0.08236816 84.15931641 -0.27459961 83.42874023 -0.47265625 82.67602539 C-4.729506 67.11703034 -12.26948451 51.82004915 -21.89013672 38.88989258 C-22.51404297 38.04426758 -23.13794922 37.19864258 -23.78076172 36.32739258 C-32.13188232 25.230561 -32.13188232 25.230561 -42.89013672 16.88989258 C-42.97134766 16.29176758 -43.05255859 15.69364258 -43.13623047 15.07739258 C-44.32857901 11.61772841 -46.86452711 10.7051763 -49.95263672 8.88989258 C-50.54753906 8.53958984 -51.14244141 8.18928711 -51.75537109 7.82836914 C-53.45844115 6.83413945 -55.17398819 5.86137315 -56.89013672 4.88989258 C-57.61072266 4.47223633 -58.33130859 4.05458008 -59.07373047 3.62426758 C-66.91063673 -0.62283001 -76.02663222 -3.28559538 -84.89013672 -4.11010742 C-84.89013672 -4.44010742 -84.89013672 -4.77010742 -84.89013672 -5.11010742 C-83.91141602 -5.22604248 -82.93269531 -5.34197754 -81.92431641 -5.46142578 C-78.28614645 -5.89307738 -74.64838765 -6.32811246 -71.01074219 -6.76416016 C-69.43760984 -6.95225559 -67.86436813 -7.13943869 -66.29101562 -7.32568359 C-64.02688556 -7.59386072 -61.76317173 -7.86533835 -59.49951172 -8.13745117 C-58.79832214 -8.219785 -58.09713257 -8.30211884 -57.37469482 -8.38694763 C-36.94882316 -10.86160737 -18.58834182 -10.47719241 0 0 Z " fill="#A1A1F3" transform="translate(428.89013671875,194.110107421875)"/>
<path d="M0 0 C22.2222193 -0.5928853 22.2222193 -0.5928853 32 3 C32.60231445 3.22042969 33.20462891 3.44085938 33.82519531 3.66796875 C64.78852627 15.3080872 85.48982353 41.07000518 99.18115234 70.30957031 C105.23027304 83.86131067 108.77927733 98.36559737 111 113 C111.18433594 114.20527344 111.36867188 115.41054688 111.55859375 116.65234375 C115.43111957 148.94804147 108.90308966 184.25663125 89.828125 211.05078125 C87.94972586 213.43408843 86.00496278 215.72325338 84 218 C83.21625 219.03125 82.4325 220.0625 81.625 221.125 C65.9333308 238.31111388 44.45833115 244.7672051 22 247 C20.0004358 247.04174914 17.99907943 247.06067493 16 247 C16 246.34 16 245.68 16 245 C17.747269 243.74809077 19.55096278 242.57465167 21.375 241.4375 C33.5527992 233.44269631 44.97447038 222.59167761 51 209 C52.32 209 53.64 209 55 209 C55.26039063 208.18144531 55.52078125 207.36289062 55.7890625 206.51953125 C56.65988014 203.98854193 57.57044294 201.54477707 58.5859375 199.07421875 C62.77060373 188.85733866 65.80161278 178.81464681 68 168 C68.176521 167.27643311 68.35304199 166.55286621 68.53491211 165.80737305 C69.15887325 162.04100605 69.16253956 158.31428805 69.16796875 154.5078125 C69.17129715 153.68481659 69.17462555 152.86182068 69.17805481 152.0138855 C69.18310875 150.27065588 69.18546361 148.52741662 69.18530273 146.78417969 C69.1874641 144.16844788 69.20556574 141.55315587 69.22460938 138.9375 C69.27297129 125.07567451 68.18299028 111.79559115 64.4375 98.375 C64.1799292 97.45041992 63.9223584 96.52583984 63.65698242 95.57324219 C55.94647851 69.05108868 40.65637634 38.89784647 17 23 C15.96875 22.7525 14.9375 22.505 13.875 22.25 C8.46009358 20.73996074 3.60062462 18.39602888 0 14 C-0.8510963 9.22237351 -0.59901737 4.79879474 0 0 Z " fill="#C3C3FC" transform="translate(133,247)"/>
<path d="M0 0 C20.78351209 0.81503969 41.33569857 7.6950203 61 14 C61.33 13.01 61.66 12.02 62 11 C78.26088269 17.8856597 92.51536016 25.46737957 106 37 C106.78503906 37.66257813 107.57007813 38.32515625 108.37890625 39.0078125 C140.91904755 67.31721312 156.19568028 108.56043746 165 150 C165 150.99 165 151.98 165 153 C157.02374854 151.74966869 151.36411867 149.26495278 144.86083984 144.48193359 C130.92613008 134.26868432 115.65625864 129.79906283 98.5625 129.8125 C97.26783813 129.8115332 97.26783813 129.8115332 95.94702148 129.81054688 C88.71428234 129.86883802 81.66057177 130.5639989 74.50390625 131.5625 C71.60121851 131.92493147 68.9134952 132.03492577 66 132 C66.01571045 130.82195801 66.0314209 129.64391602 66.04760742 128.43017578 C66.10280138 123.9683341 66.13666779 119.50652102 66.16479492 115.04443359 C66.17968141 113.13031912 66.19999725 111.21623748 66.22631836 109.30224609 C66.44059606 93.29444138 65.8164874 77.40520376 59.875 62.3125 C59.57352051 61.52907227 59.27204102 60.74564453 58.96142578 59.93847656 C49.01750656 35.08120364 30.73448018 17.30003348 7.3984375 4.875 C4.71529402 3.39464497 2.3692563 1.92426908 0 0 Z " fill="#3F3F76" transform="translate(292,51)"/>
<path d="M0 0 C0.99 0.33 1.98 0.66 3 1 C2.42822743 5.14284338 0.0092807 7.95067998 -2.4375 11.1875 C-6.38595663 16.56358622 -9.99113803 22.06408858 -13.375 27.8125 C-13.77904053 28.49272217 -14.18308105 29.17294434 -14.59936523 29.8737793 C-17.44085552 34.76440419 -19.79369527 39.79423988 -22 45 C-21.67 45.33 -21.34 45.66 -21 46 C-20.35933594 45.59007812 -19.71867187 45.18015625 -19.05859375 44.7578125 C-18.19363281 44.21898437 -17.32867187 43.68015625 -16.4375 43.125 C-15.59058594 42.59132813 -14.74367188 42.05765625 -13.87109375 41.5078125 C-5.26393979 36.98759287 4.97925411 36.41522082 14.32421875 38.875 C27.78378277 44.11406205 37.77420922 54.06307454 44 67 C52.33931676 88.82121218 52.1569294 110.37165352 43.37109375 132.0625 C38.96418661 141.50407883 30.52680756 150.49895571 20.71484375 154.37890625 C10.47016046 156.72265394 -0.43371345 155.85412471 -9.515625 150.5234375 C-24.07510271 140.97695361 -31.36858483 126.09822066 -35.12109375 109.46875 C-38.03055715 93.83511685 -37.2162705 76.31003165 -33 61 C-32.81195801 60.31244629 -32.62391602 59.62489258 -32.43017578 58.91650391 C-26.25756161 37.0103529 -15.02800915 17.03499652 0 0 Z " fill="#51518B" transform="translate(338,224)"/>
<path d="M0 0 C0 3 0 3 -1.58203125 4.734375 C-2.68611328 5.73210937 -2.68611328 5.73210937 -3.8125 6.75 C-14.51056705 17.14576688 -22.15934254 29.85176333 -29 43 C-29.35771484 43.66821777 -29.71542969 44.33643555 -30.08398438 45.02490234 C-44.2974665 71.79958119 -51.64688631 102.18102021 -57.19897461 131.76660156 C-60.75666402 150.52659837 -65.62422888 173.18243321 -82 185 C-85.50799345 186.75399672 -89.17169107 186.53116977 -93 186 C-99.95252139 182.18292943 -103.29417374 174.43796735 -105.60424805 167.07373047 C-107.34567272 160.31126263 -107.3455421 153.57328255 -107.3125 146.625 C-107.30686035 145.38492188 -107.3012207 144.14484375 -107.29541016 142.8671875 C-106.69307967 96.87537874 -83.58819678 47.84883534 -52.0625 14.75 C-37.82070871 0.95943378 -19.32055971 -7.513551 0 0 Z " fill="#6666A2" transform="translate(159,60)"/>
<path d="M0 0 C27.96611332 18.79322815 44.47398711 49.17659102 51.54174805 81.62817383 C53.55281269 92.03706728 54.3597335 102.21918929 54.3125 112.8125 C54.30512817 114.78416138 54.30512817 114.78416138 54.29760742 116.7956543 C54.18009098 126.55675079 53.4150885 135.53441121 51 145 C50.83371094 145.68771484 50.66742188 146.37542969 50.49609375 147.08398438 C46.75962855 162.32045913 40.68408942 176.327422 30 188 C29.38640625 188.70511719 28.7728125 189.41023437 28.140625 190.13671875 C19.07800878 199.96703593 6.3799056 206.37172135 -6.9987793 207.11035156 C-9.06270764 207.16852511 -11.12279172 207.18556131 -13.1875 207.1875 C-13.88552734 207.19974609 -14.58355469 207.21199219 -15.30273438 207.22460938 C-19.03816182 207.23527187 -21.83029935 207.07218156 -25 205 C-24.18917969 204.79246094 -23.37835938 204.58492187 -22.54296875 204.37109375 C-11.78776168 201.3786671 -0.72183299 196.38704956 6 187 C6.67331299 185.00222772 7.33923156 183.00195642 8 181 C9.20790782 178.85079464 10.46180023 176.72706241 11.75 174.625 C26.12860866 150.15153958 29.63848257 118.61126589 22.58642578 91.13720703 C14.29546734 60.92111618 0.35309308 36.50433705 -27 20 C-27.99 19.34 -28.98 18.68 -30 18 C-30 17.01 -30 16.02 -30 15 C-31.3745183 14.68538803 -32.74964419 14.37343027 -34.125 14.0625 C-34.89070313 13.88847656 -35.65640625 13.71445312 -36.4453125 13.53515625 C-48.43484868 11.02358675 -62.80667187 9.79622936 -73.86328125 16.0546875 C-75.27996587 16.98111133 -76.64583454 17.9843759 -78 19 C-78.66 19.33 -79.32 19.66 -80 20 C-76.17292633 8.93092538 -65.69996326 1.7542155 -56 -4 C-37.90489576 -12.78073423 -16.99412363 -10.4415305 0 0 Z " fill="#3F3F75" transform="translate(102,278)"/>
<path d="M0 0 C8.06882927 4.08732499 8.06882927 4.08732499 10.01171875 8.078125 C11.29142419 10.56672215 12.4803564 10.8543006 15 12 C32.55003616 24.82396343 46.97383322 43.53714041 51.49609375 65.140625 C53.0416539 76.97793837 53.43109467 89.7627439 49 101 C48.63648437 102.00289063 48.27296875 103.00578125 47.8984375 104.0390625 C44.55439043 112.73358489 40.56361877 120.44557722 32.203125 125.15234375 C26.80820962 127.22804701 21.26608152 126.85579357 16 124.5625 C-3.20658139 113.4327305 -13.40648184 90.94089496 -18.9765625 70.3984375 C-23.3902094 50.47515292 -24.14109352 23.39592974 -13 5.5 C-9.04302504 0.5537813 -6.50068011 -0.95911674 0 0 Z " fill="#6666A2" transform="translate(40,324)"/>
<path d="M0 0 C3.37739385 2.34406391 5.75849635 4.81219857 7.90234375 8.3203125 C8.32 8.990625 8.73765625 9.6609375 9.16796875 10.3515625 C10.34473303 13.10399421 10.60590467 14.38271724 9.90234375 17.3203125 C7.46080097 20.06610908 4.93379377 22.37560097 2.13720703 24.74145508 C-5.49153004 31.1978722 -9.34899105 38.21111226 -12.72265625 47.5703125 C-15.57037546 54.64693353 -19.3416537 57.0292756 -26.171875 60.0859375 C-27.13738281 60.49328125 -28.10289062 60.900625 -29.09765625 61.3203125 C-30.08765625 61.9803125 -31.07765625 62.6403125 -32.09765625 63.3203125 C-31.47046694 58.67911157 -29.57721467 54.81920869 -27.47265625 50.6953125 C-27.11292725 49.98600586 -26.75319824 49.27669922 -26.38256836 48.54589844 C-21.4370908 38.93580029 -15.49488903 30.3201404 -8.8203125 21.8515625 C-6.81634423 19.41726019 -6.81634423 19.41726019 -7.09765625 16.3203125 C-11.35386786 17.84317721 -13.37756477 20.9935544 -15.84765625 24.5703125 C-16.2844873 25.19510498 -16.72131836 25.81989746 -17.17138672 26.46362305 C-36.69549064 54.81802753 -48.53922684 87.37330662 -43.69482422 122.21777344 C-41.92703568 131.47696999 -38.8466821 139.90328245 -34.13671875 148.0703125 C-33.09765625 150.3203125 -33.09765625 150.3203125 -34.09765625 153.3203125 C-38.44819713 155.90344615 -43.19590611 155.9535923 -48.09765625 155.3203125 C-55.71918993 153.18571002 -61.18366801 147.32565213 -65.08007812 140.6328125 C-72.06722039 127.58639797 -75.21047665 114.01511836 -75.30078125 99.2265625 C-75.30933136 98.10187561 -75.30933136 98.10187561 -75.3180542 96.95446777 C-75.3274391 95.37460714 -75.33401202 93.7947275 -75.33789062 92.21484375 C-75.34751969 89.8537975 -75.37857311 87.49365251 -75.41015625 85.1328125 C-75.50537386 71.62137142 -73.7608882 58.82268336 -69.28515625 46.0078125 C-68.89831665 44.88064819 -68.89831665 44.88064819 -68.50366211 43.73071289 C-62.17967342 25.88727651 -50.02593663 10.19845955 -33.09765625 1.3203125 C-22.84616032 -3.38757558 -10.37140184 -5.52368888 0 0 Z " fill="#D5D5FD" transform="translate(347.09765625,208.6796875)"/>
<path d="M0 0 C19.38746919 5.63749104 32.81977724 18.64244949 42.5078125 36.12109375 C51.05680027 52.61482146 53.18749873 70.91685263 53.18530273 89.2644043 C53.18748469 91.29822889 53.20568982 93.33150548 53.22460938 95.36523438 C53.24066945 106.32355734 52.35537853 116.72184393 48.375 127 C47.99456543 128.00075562 47.99456543 128.00075562 47.60644531 129.02172852 C45.08167768 135.33741816 41.24062988 144.87968506 35 148 C35.12117188 147.41734375 35.24234375 146.8346875 35.3671875 146.234375 C36.33050367 141.52153588 37.23854489 136.80179065 38.0625 132.0625 C38.29646484 130.71865234 38.29646484 130.71865234 38.53515625 129.34765625 C43.95777651 90.29567673 36.44897982 48.53838403 12.75878906 16.31152344 C10.9006207 13.92074958 8.9599225 11.61070344 6.984375 9.31640625 C4.43746502 6.34334008 2.21942504 3.22174602 0 0 Z " fill="#3E3E74" transform="translate(454,208)"/>
<path d="M0 0 C0.08564209 1.31492432 0.17128418 2.62984863 0.25952148 3.98461914 C0.58183549 8.93286878 0.90430005 13.88110861 1.22680664 18.8293457 C1.36551863 20.95792382 1.50419153 23.08650448 1.64282227 25.21508789 C2.41975736 37.1439867 3.19911633 49.07268187 4 61 C1.99081177 58.490739 -0.01581301 55.97997224 -2.0078125 53.45703125 C-14.00266553 38.47453032 -26.68716489 27.32440491 -45 21 C-46.00289062 20.63003906 -47.00578125 20.26007813 -48.0390625 19.87890625 C-53.52973043 18.34992599 -59.2910198 18.79153867 -64.9375 18.875 C-66.67870117 18.88853516 -66.67870117 18.88853516 -68.45507812 18.90234375 C-71.30360108 18.92578838 -74.15169078 18.95860478 -77 19 C-66.90481868 8.32863931 -49.17884624 6.90130446 -35.37890625 4.828125 C-31.46197489 4.23605641 -27.55662958 3.5922901 -23.65234375 2.921875 C-22.57887695 2.73810303 -21.50541016 2.55433105 -20.39941406 2.36499023 C-18.2978834 2.00350012 -16.19694161 1.63856546 -14.09667969 1.26977539 C-13.13020508 1.10469482 -12.16373047 0.93961426 -11.16796875 0.76953125 C-10.31485107 0.62104736 -9.4617334 0.47256348 -8.58276367 0.31958008 C-5.70055383 -0.03705218 -2.90130009 -0.0521255 0 0 Z " fill="#51518A" transform="translate(133,247)"/>
<path d="M0 0 C0.99 0.33 1.98 0.66 3 1 C2.42822743 5.14284338 0.0092807 7.95067998 -2.4375 11.1875 C-6.38595663 16.56358622 -9.99113803 22.06408858 -13.375 27.8125 C-13.77904053 28.49272217 -14.18308105 29.17294434 -14.59936523 29.8737793 C-17.44085552 34.76440419 -19.79369527 39.79423988 -22 45 C-21.67 45.33 -21.34 45.66 -21 46 C-20.35933594 45.59007812 -19.71867187 45.18015625 -19.05859375 44.7578125 C-18.19363281 44.21898437 -17.32867187 43.68015625 -16.4375 43.125 C-15.59058594 42.59132813 -14.74367188 42.05765625 -13.87109375 41.5078125 C-5.26393979 36.98759287 4.97925411 36.41522082 14.32421875 38.875 C27.78378277 44.11406205 37.77420922 54.06307454 44 67 C52.33931676 88.82121218 52.1569294 110.37165352 43.37109375 132.0625 C38.96418661 141.50407883 30.52680756 150.49895571 20.71484375 154.37890625 C10.47016046 156.72265394 -0.43371345 155.85412471 -9.515625 150.5234375 C-24.07510271 140.97695361 -31.36858483 126.09822066 -35.12109375 109.46875 C-38.03055715 93.83511685 -37.2162705 76.31003165 -33 61 C-32.81195801 60.31244629 -32.62391602 59.62489258 -32.43017578 58.91650391 C-26.25756161 37.0103529 -15.02800915 17.03499652 0 0 Z M-26.52734375 57.6640625 C-35.03337084 71.15638134 -33.62944799 94.66793096 -30.25 109.625 C-27.92922906 119.21834724 -24.75876461 127.91070894 -19 136 C-18.57074219 136.60714844 -18.14148438 137.21429688 -17.69921875 137.83984375 C-12.39311243 144.67052146 -4.53036649 149.50344447 4 151 C14.39333104 152.02967985 22.07123525 149.70873741 30.1875 143.125 C41.68831017 132.07626571 44.97720406 116.84981156 45.34960938 101.47802734 C45.50121797 83.32289847 42.16888171 66.42616992 29.09375 52.8984375 C20.23220217 44.86352659 10.88046156 41.29913493 -1.11328125 41.65234375 C-11.22990624 42.87071943 -20.13274768 50.06046535 -26.52734375 57.6640625 Z " fill="#09090C" transform="translate(338,224)"/>
<path d="M0 0 C0.02749766 1.37488287 0.0466164 2.74993391 0.0625 4.125 C0.07410156 4.89070313 0.08570313 5.65640625 0.09765625 6.4453125 C0 9 0 9 -0.50878906 11.4543457 C-1.19600211 16.41478066 -1.04185359 21.2856546 -0.95703125 26.28515625 C-0.93462855 28.53058998 -0.91317474 30.77603335 -0.89257812 33.02148438 C-0.85564675 36.53436731 -0.81276721 40.04675019 -0.75317383 43.55932617 C-0.49094924 59.79778417 -0.30327664 73.26297524 -10 87 C-17.27327942 80.11820021 -18.62590361 70.23219199 -20.60791016 60.84130859 C-20.91306883 59.40824089 -21.24926302 57.98176873 -21.59765625 56.55859375 C-23.22671511 46.19904469 -22.4987471 34.98157596 -20.75 24.6875 C-20.64075195 24.01364258 -20.53150391 23.33978516 -20.41894531 22.64550781 C-18.61842119 13.22701812 -12.93817442 6.47916834 -5.25 1.0625 C-3 0 -3 0 0 0 Z " fill="#6565A1" transform="translate(328,270)"/>
<path d="M0 0 C6.69365422 0.73844584 10.34515373 5.52899442 15 10 C15.59941406 10.53625 16.19882813 11.0725 16.81640625 11.625 C40.19641947 33.2585544 55.39181246 70.67464085 57 102 C57.19997523 107.4753948 57.26961332 112.94951702 57.29516602 118.42822266 C57.30662604 120.12850303 57.32698191 121.82874914 57.35668945 123.52880859 C57.62970456 139.23556604 55.24287941 153.64718901 50.0625 168.5 C49.81161621 169.23847168 49.56073242 169.97694336 49.30224609 170.73779297 C47.32873425 176.39967037 44.96452527 181.77928736 42 187 C40.68 186.67 39.36 186.34 38 186 C38.6485032 181.81207575 40.06774193 178.35171909 41.8125 174.5 C57.01131491 139.75790199 55.6855337 98.37910019 42.6640625 63.109375 C39.93469785 56.15890105 36.57358924 49.54833209 33 43 C32.41089844 41.906875 31.82179687 40.81375 31.21484375 39.6875 C27.4141462 32.89992169 23.07002727 26.89142834 18 21 C17.27683594 20.154375 16.55367187 19.30875 15.80859375 18.4375 C11.40410974 13.41255824 6.8241684 8.92611395 1.65234375 4.69140625 C0 3 0 3 0 0 Z " fill="#0A0A0E" transform="translate(146,269)"/>
<path d="M0 0 C3.42888912 0.58616711 5.11021091 1.71718662 7.57421875 4.140625 C8.23736084 4.79224609 8.90050293 5.44386719 9.58374023 6.11523438 C10.27798096 6.81970703 10.97222168 7.52417969 11.6875 8.25 C12.40429932 8.97509766 13.12109863 9.70019531 13.85961914 10.44726562 C19.75570199 16.53096021 24.60595958 22.73063604 29 30 C29.3717334 30.60779297 29.7434668 31.21558594 30.12646484 31.84179688 C43.04130861 53.14128807 52.12663529 77.75566175 52.16796875 102.91015625 C52.17296135 104.00510658 52.17296135 104.00510658 52.17805481 105.12217712 C52.18308343 106.65916319 52.1854644 108.19616002 52.18530273 109.7331543 C52.18747178 112.03258275 52.20562284 114.33151655 52.22460938 116.63085938 C52.27592741 129.56900601 51.43957258 142.2106026 47.25 154.5625 C46.99049561 155.35406494 46.73099121 156.14562988 46.46362305 156.96118164 C39.79951502 176.85323324 39.79951502 176.85323324 35 182 C34.01 182 33.02 182 32 182 C32.59021534 176.49425991 34.57728879 172.05265692 36.8125 167.0625 C44.36498933 149.62192492 47.40474409 132.21019268 47.4375 113.1875 C47.43889984 112.52379395 47.44029968 111.86008789 47.44174194 111.17626953 C47.4186837 97.72469064 45.46440209 84.99704008 42 72 C41.80776855 71.26942383 41.61553711 70.53884766 41.41748047 69.78613281 C37.16063072 54.22713776 29.62065221 38.93015657 20 26 C19.37609375 25.154375 18.7521875 24.30875 18.109375 23.4375 C9.75825439 12.34066842 9.75825439 12.34066842 -1 4 C-0.67 2.68 -0.34 1.36 0 0 Z " fill="#09090D" transform="translate(387,207)"/>
<path d="M0 0 C13.78594874 1.19052624 25.36602289 13.95639397 34 24 C51.96788485 46.44331382 60.37654552 74.97813879 60.37060547 103.40722656 C60.37496844 105.73317352 60.41139193 108.05720011 60.44921875 110.3828125 C60.52768145 120.82201246 59.04200761 130.02590234 56 140 C55.74847168 140.83805176 55.49694336 141.67610352 55.23779297 142.53955078 C52.25795406 151.87167395 48.21131461 161.34273159 42 169 C39.7578125 169.84765625 39.7578125 169.84765625 38 170 C38 165.26028356 39.15288249 163.73131285 41.625 159.75 C55.87866152 135.73833059 59.29492328 105.28910261 53.09765625 78.12890625 C45.15109269 47.16994469 30.87721908 21.82058473 3 5 C2.01 4.34 1.02 3.68 0 3 C0 2.01 0 1.02 0 0 Z " fill="#030307" transform="translate(72,293)"/>
<path d="M0 0 C0.66 0.33 1.32 0.66 2 1 C4.37123246 1.23029956 6.74741943 1.41119942 9.125 1.5625 C10.40632813 1.64628906 11.68765625 1.73007812 13.0078125 1.81640625 C14.48894531 1.90728516 14.48894531 1.90728516 16 2 C16 2.33 16 2.66 16 3 C5.605 3.495 5.605 3.495 -5 4 C-2 1 -2 1 0 0 Z " fill="#38385F" transform="translate(61,262)"/>
</svg>
